<?xml version="1.0" standalone="no"?>
<!DOCTYPE svg PUBLIC "-//W3C//DTD SVG 20010904//EN"
 "http://www.w3.org/TR/2001/REC-SVG-20010904/DTD/svg10.dtd">
<svg version="1.0" xmlns="http://www.w3.org/2000/svg"
 width="512.000000pt" height="512.000000pt" viewBox="0 0 512.000000 512.000000"
 preserveAspectRatio="xMidYMid meet">
<metadata>
Created by potrace 1.11, written by Peter Selinger 2001-2013
</metadata>
<g transform="translate(0.000000,512.000000) scale(0.100000,-0.100000)"
fill="#000000" stroke="none">
<path d="M443 5104 c-69 -34 -66 9 -65 -958 l0 -871 -34 -102 c-55 -164 -93
-330 -115 -493 -14 -110 -20 -465 -9 -555 5 -38 11 -88 14 -110 20 -175 99
-443 182 -623 13 -29 24 -55 24 -57 0 -11 118 -217 163 -285 290 -435 726
-769 1217 -930 138 -45 288 -81 400 -95 25 -3 61 -8 80 -11 19 -3 121 -7 225
-9 181 -3 327 8 459 34 28 6 62 12 76 15 107 18 328 91 458 151 29 14 55 25
57 25 11 0 217 118 285 163 140 94 234 171 365 303 190 190 313 361 433 600
69 137 141 315 157 389 2 11 11 45 19 75 17 63 24 96 47 220 25 140 33 468 16
630 -4 41 -8 82 -9 90 0 8 -4 33 -8 55 -5 22 -12 60 -15 84 -10 68 -52 226
-89 331 l-33 95 0 881 c-1 836 -1 883 -19 913 -32 54 -104 74 -160 43 -11 -6
-197 -189 -414 -406 -217 -218 -400 -396 -405 -396 -6 0 -46 15 -90 34 -72 30
-246 87 -351 115 -91 24 -269 53 -409 67 -38 3 -86 8 -105 10 -48 5 -382 4
-455 -1 -73 -5 -158 -13 -205 -20 -19 -3 -51 -7 -70 -9 -173 -21 -452 -99
-615 -171 -32 -14 -63 -25 -69 -25 -6 0 -191 180 -411 400 -443 443 -443 443
-522 404z"/>
</g>
</svg>
